<svg xmlns="http://www.w3.org/2000/svg" viewBox="0 0 64 64">
  <defs>
    <linearGradient id="bg" x1="0%" y1="0%" x2="100%" y2="100%">
      <stop offset="0%" style="stop-color:#7c3aed"/>
      <stop offset="100%" style="stop-color:#a78bfa"/>
    </linearGradient>
    <linearGradient id="ring" x1="0%" y1="0%" x2="100%" y2="0%">
      <stop offset="0%" style="stop-color:#c4b5fd;stop-opacity:0"/>
      <stop offset="40%" style="stop-color:#c4b5fd;stop-opacity:1"/>
      <stop offset="100%" style="stop-color:#c4b5fd;stop-opacity:0"/>
    </linearGradient>
  </defs>
  <circle cx="32" cy="32" r="30" fill="url(#bg)"/>
  <circle cx="32" cy="32" r="30" fill="none" stroke="rgba(255,255,255,0.15)" stroke-width="1"/>
  <ellipse cx="32" cy="32" rx="38" ry="10" fill="none"
    stroke="url(#ring)" stroke-width="2.5" opacity="0.7"
    transform="rotate(-30 32 32)"/>
  <path d="M21 16 L21 48 L26 48 L26 36 L36 36
    C43 36 48 31 48 26 C48 21 43 16 36 16 Z
    M26 21 L35 21 C40 21 43 23.5 43 26 C43 28.5 40 31 35 31 L26 31 Z"
    fill="white"/>
</svg>
